<?xml version="1.0" encoding="UTF-8" standalone="no"?>
<!-- Created with Inkscape (http://www.inkscape.org/) -->

<svg
   xmlns:dc="http://purl.org/dc/elements/1.1/"
   xmlns:cc="http://creativecommons.org/ns#"
   xmlns:rdf="http://www.w3.org/1999/02/22-rdf-syntax-ns#"
   xmlns:svg="http://www.w3.org/2000/svg"
   xmlns="http://www.w3.org/2000/svg"
   xmlns:sodipodi="http://sodipodi.sourceforge.net/DTD/sodipodi-0.dtd"
   xmlns:inkscape="http://www.inkscape.org/namespaces/inkscape"
   width="210mm"
   height="297mm"
   viewBox="0 0 744.09448819 1052.3622047"
   id="svg2"
   version="1.1"
   inkscape:version="0.91 r13725"
   sodipodi:docname="logo.svg">
  <defs
     id="defs4">
    <inkscape:perspective
       id="perspective2888"
       inkscape:persp3d-origin="372.04724 : 350.78739 : 1"
       inkscape:vp_z="744.09448 : 526.18109 : 1"
       inkscape:vp_y="0 : 1000 : 0"
       inkscape:vp_x="0 : 526.18109 : 1"
       sodipodi:type="inkscape:persp3d" />
    <inkscape:perspective
       sodipodi:type="inkscape:persp3d"
       inkscape:vp_x="0 : 0.5 : 1"
       inkscape:vp_y="0 : 1000 : 0"
       inkscape:vp_z="1 : 0.5 : 1"
       inkscape:persp3d-origin="0.5 : 0.33333333 : 1"
       id="perspective2859" />
  </defs>
  <sodipodi:namedview
     id="base"
     pagecolor="#ffffff"
     bordercolor="#666666"
     borderopacity="1.0"
     inkscape:pageopacity="0.0"
     inkscape:pageshadow="2"
     inkscape:zoom="1"
     inkscape:cx="330.4934"
     inkscape:cy="712.51776"
     inkscape:document-units="px"
     inkscape:current-layer="layer1"
     showgrid="false"
     inkscape:window-width="1920"
     inkscape:window-height="1016"
     inkscape:window-x="0"
     inkscape:window-y="27"
     inkscape:window-maximized="1" />
  <metadata
     id="metadata7">
    <rdf:RDF>
      <cc:Work
         rdf:about="">
        <dc:format>image/svg+xml</dc:format>
        <dc:type
           rdf:resource="http://purl.org/dc/dcmitype/StillImage" />
        <dc:title></dc:title>
      </cc:Work>
    </rdf:RDF>
  </metadata>
  <g
     inkscape:label="Layer 1"
     inkscape:groupmode="layer"
     id="layer1">
    <path
       sodipodi:nodetypes="ccsc"
       inkscape:connector-curvature="0"
       id="path4639"
       d="m 229.06902,393.85147 c -3.73549,21.79036 -38.39256,21.90151 -38.39256,21.90151 0,0 21.20339,-6.56966 19.7507,-22.34174 -1.32705,-14.408 18.64186,0.44023 18.64186,0.44023 z"
       style="fill:#a22430;fill-opacity:1;stroke:none"
       inkscape:export-xdpi="90"
       inkscape:export-ydpi="90" />
    <rect
       style="fill:#a22430;fill-opacity:1;stroke:none"
       id="rect3328"
       width="89.521233"
       height="77.451447"
       x="159.19595"
       y="317.54288"
       ry="12.913471"
       inkscape:export-xdpi="90"
       inkscape:export-ydpi="90" />
    <path
       style="fill:#ffffff;fill-opacity:1;stroke:none"
       d="m 207.17886,363.47954 18.04951,0 c 0,0 0,-8.6579 0,0 0,8.65789 -3.6686,22.15834 -20.83764,21.27788 -17.16905,-0.88046 -20.98439,-14.38091 -21.13114,-23.47904 -0.14674,-9.09813 2.64741,-20.32513 22.89207,-19.81044 17.31578,0.44023 18.92997,16.28858 18.92997,16.28858 l -8.36441,-0.14674 c 0,0 -1.90767,-8.6579 -12.03301,-8.21766 -10.12533,0.44023 -11.44602,2.20115 -11.44602,12.91347 0,10.71231 4.69527,14.39422 11.88626,14.67439 11.29929,0.44023 10.27208,-5.86976 10.27208,-5.86976 l -5.28279,0.29349 z"
       id="path4512"
       inkscape:connector-curvature="0"
       sodipodi:nodetypes="ccssssccsssccc"
       inkscape:export-xdpi="90"
       inkscape:export-ydpi="90" />
    <path
       style="fill:#ffffff;fill-opacity:1;stroke:none"
       d="m 216.29069,328.04087 c 1.37154,-1.22326 7.26383,5.94313 7.41057,8.73126 0.21596,4.10316 0.32474,11.56015 -11.88626,11.44603 -7.8508,-0.0734 -8.21766,-5.42952 -8.21766,-5.42952 0,0 -0.22012,-4.62244 4.03545,-4.62244 4.25557,0 2.85833,3.00825 6.23663,3.00825 5.06267,0 4.27343,-2.05348 4.40231,-4.69581 0.2935,-6.0165 -3.35257,-7.21451 -1.98104,-8.43777 z"
       id="path4516"
       inkscape:connector-curvature="0"
       sodipodi:nodetypes="zsscsssz"
       inkscape:export-xdpi="90"
       inkscape:export-ydpi="90" />
    <path
       sodipodi:nodetypes="zsscsssz"
       inkscape:connector-curvature="0"
       id="path4611"
       d="m 191.3431,328.04087 c -1.37153,-1.22326 -7.41057,4.62243 -7.41057,8.73126 0,4.10883 -0.32474,11.56015 11.88626,11.44603 7.85081,-0.0734 8.21766,-5.42952 8.21766,-5.42952 0,0 0.22012,-4.62244 -4.03545,-4.62244 -4.25558,0 -2.85832,3.00825 -6.23662,3.00825 -5.06267,0 -4.27343,-2.05348 -4.40232,-4.69581 -0.29349,-6.0165 3.35257,-7.21451 1.98104,-8.43777 z"
       style="fill:#ffffff;fill-opacity:1;stroke:none"
       inkscape:export-xdpi="90"
       inkscape:export-ydpi="90" />
    <path
       inkscape:connector-curvature="0"
       id="path4483"
       style="font-style:normal;font-variant:normal;font-weight:normal;font-stretch:normal;font-size:62.32410049px;font-family:Colaborate-Bold;-inkscape-font-specification:Colaborate-Bold;fill:#a22430;fill-opacity:1;stroke:none"
       d="m 291.35803,341.18531 c -2.99155,0.12465 -9.34862,0.62324 -11.6546,0.81021 -1.74508,-0.24929 -2.67994,-0.49859 -4.79896,-0.49859 -12.02854,0 -13.64898,7.60354 -13.64898,10.90672 0,3.55247 1.99437,6.17008 2.67994,7.04262 -1.86972,1.24648 -3.55248,3.11621 -3.55248,5.1729 0,2.30599 0.68557,4.30036 3.36551,5.54685 -1.30881,0.62324 -3.92642,1.8074 -3.92642,5.1729 0,4.79895 3.55248,8.22678 15.58102,8.22678 7.29192,0 15.26941,-1.93206 15.26941,-8.41376 0,-5.29754 -2.5553,-7.66586 -14.64617,-8.5384 -7.04261,-0.49859 -8.47607,-0.87254 -8.47607,-2.36831 0,-0.99719 0.49859,-1.62043 1.12183,-1.68276 1.68275,0.68557 5.54685,0.93487 6.35706,0.93487 11.09368,0 13.64898,-6.29474 13.64898,-10.96905 0,-2.36831 -1.68276,-4.6743 -2.61762,-5.79614 l 3.24086,0 2.05669,-5.54684 M 280.13969,352.279 c 0,1.99437 -1.18416,4.79895 -5.04825,4.79895 -2.43064,0 -5.29755,-0.68556 -5.29755,-4.54966 0,-4.54965 3.42783,-4.6743 5.23523,-4.6743 3.80176,0 5.11057,1.8074 5.11057,4.42501 m 1.86973,22.87294 c 0,1.93205 -1.37114,2.36832 -6.60636,2.36832 -2.74226,0 -6.91797,-0.87254 -6.91797,-2.49296 0,-0.81022 0.31162,-1.62043 0.81021,-2.18135 10.28347,0.0623 12.71412,1.30881 12.71412,2.30599"
       inkscape:export-xdpi="90"
       inkscape:export-ydpi="90" />
    <path
       inkscape:connector-curvature="0"
       id="path4485"
       style="font-style:normal;font-variant:normal;font-weight:normal;font-stretch:normal;font-size:62.32410049px;font-family:Colaborate-Bold;-inkscape-font-specification:Colaborate-Bold;fill:#a22430;fill-opacity:1;stroke:none"
       d="m 320.24991,370.85158 0,-17.94934 c 0,-6.54402 -1.74509,-11.46764 -10.47045,-11.46764 -3.73944,0 -6.17009,3.24086 -7.41657,4.42502 l -1.24648,-3.49015 -7.91516,0 c 0.31162,1.86972 0.81021,3.67712 0.81021,6.04543 l 0,22.43668 8.5384,0 0,-17.26378 c 1.43346,-2.74225 3.11621,-5.67149 5.6715,-5.67149 3.49014,0 3.49015,2.43064 3.49015,4.42501 l 0,18.51026 8.5384,0"
       inkscape:export-xdpi="90"
       inkscape:export-ydpi="90" />
    <path
       inkscape:connector-curvature="0"
       id="path4487"
       style="font-style:normal;font-variant:normal;font-weight:normal;font-stretch:normal;font-size:62.32410049px;font-family:Colaborate-Bold;-inkscape-font-specification:Colaborate-Bold;fill:#a22430;fill-opacity:1;stroke:none"
       d="m 351.97558,370.85158 c -0.31162,-1.86972 -0.81022,-3.67712 -0.81022,-6.04544 l 0,-22.43667 -8.5384,0 0,17.26377 c -1.43345,2.74226 -2.86691,5.6715 -5.42219,5.6715 -3.17853,0 -3.30318,-2.49297 -3.30318,-4.42502 l 0,-18.51025 -8.5384,0 0,17.94934 c 0,6.54402 2.0567,11.46763 10.28347,11.46763 3.73945,0 5.92079,-3.24085 7.16728,-4.42501 l 1.24648,3.49015 7.91516,0"
       inkscape:export-xdpi="90"
       inkscape:export-ydpi="90" />
    <path
       inkscape:connector-curvature="0"
       id="path4489"
       style="font-style:normal;font-variant:normal;font-weight:normal;font-stretch:normal;font-size:62.32410049px;font-family:Colaborate-Regular;-inkscape-font-specification:Colaborate-Regular;fill:#a22430;fill-opacity:1;stroke:none"
       d="m 376.54274,363.12339 c 0,-6.66867 -5.67149,-8.16446 -10.22115,-9.59791 -2.92923,-0.93486 -5.35987,-1.74508 -5.35987,-3.86409 0,-2.74226 2.18135,-3.73945 5.54684,-3.73945 2.99156,0 4.73664,0.87254 7.60355,2.18134 l 1.99437,-4.6743 c -3.92642,-1.30881 -6.73101,-1.86973 -9.47327,-1.86973 -5.54684,0 -11.40531,1.86973 -11.40531,8.28911 0,5.73381 4.86129,7.41657 9.16165,8.7877 3.42782,1.12183 6.41938,1.99437 6.41938,4.54966 0,2.49296 -1.18416,4.11339 -5.4222,4.11339 -3.3655,0 -5.29755,-0.87254 -8.60072,-2.18135 l -1.93205,4.61199 c 2.92923,1.18415 7.10495,1.93204 10.40812,1.93204 5.73381,0 11.28066,-2.30599 11.28066,-8.5384"
       inkscape:export-xdpi="90"
       inkscape:export-ydpi="90" />
    <path
       inkscape:connector-curvature="0"
       id="path4009"
       d="m 239.54664,298.16608 -0.008,3.18418 c 14.06848,0.0341 25.44564,11.46644 25.41155,25.53494 l 3.18418,0.008 c 0.0384,-15.82706 -12.76097,-28.6885 -28.58802,-28.72683 z m -0.0154,6.36833 -0.008,3.18417 c 10.55137,0.0256 19.08422,8.59982 19.05866,19.15119 l 3.18417,0.008 c 0.0299,-12.30994 -9.9252,-22.31327 -22.23513,-22.34308 z m -0.0154,6.36831 -0.008,3.18416 c 7.03424,0.017 12.72281,5.73323 12.70578,12.76747 l 3.18415,0.008 c 0.0213,-8.79281 -7.08942,-15.93805 -15.88222,-15.95934 z"
       style="fill:#a22430;fill-opacity:1;stroke:#a22430;stroke-width:1.81349564;stroke-linecap:round;stroke-linejoin:round;stroke-miterlimit:4;stroke-dasharray:none;stroke-opacity:1"
       inkscape:export-xdpi="90"
       inkscape:export-ydpi="90" />
  </g>
</svg>
